<?xml version="1.0" standalone="no"?>
<!DOCTYPE svg PUBLIC "-//W3C//DTD SVG 20010904//EN"
 "http://www.w3.org/TR/2001/REC-SVG-20010904/DTD/svg10.dtd">
<svg version="1.0" xmlns="http://www.w3.org/2000/svg"
 width="48.000000pt" height="48.000000pt" viewBox="0 0 48.000000 48.000000"
 preserveAspectRatio="xMidYMid meet">

<g transform="translate(0.000000,48.000000) scale(0.100000,-0.100000)"
fill="#000000" stroke="none">
<path d="M220 350 l0 -90 -90 0 c-83 0 -90 -1 -90 -20 0 -19 7 -20 90 -20 l90
0 0 -90 c0 -83 1 -90 20 -90 19 0 20 7 20 90 l0 90 90 0 c83 0 90 1 90 20 0
19 -7 20 -90 20 l-90 0 0 90 c0 83 -1 90 -20 90 -19 0 -20 -7 -20 -90z"/>
</g>
</svg>
